<svg width="301" height="162" xmlns="http://www.w3.org/2000/svg">
 <g>
  <title>Layer 1</title>
  <g fill="white" stroke="null" id="svg_18">
   <g stroke="null" id="svg_15" fill="#61dafb">
    <path stroke="#ffffff" id="svg_16" d="m224.00969,78.34923c0,-11.31245 -14.16666,-22.03316 -35.88656,-28.6814c5.01228,-22.13759 2.7846,-39.75019 -7.03112,-45.38901c-2.26249,-1.32269 -4.90786,-1.94922 -7.79689,-1.94922l0,7.76208c1.60115,0 2.88902,0.31327 3.96806,0.905c4.73382,2.71499 6.78747,13.05282 5.18632,26.3493c-0.38288,3.27191 -1.00942,6.71785 -1.77518,10.23341c-6.82228,-1.67076 -14.27109,-2.95864 -22.10278,-3.79402c-4.69902,-6.43939 -9.57207,-12.28706 -14.47993,-17.40376c11.34725,-10.54668 21.99836,-16.32473 29.23832,-16.32473l0,-7.76208c-9.57207,0 -22.10278,6.82228 -34.77272,18.65683c-12.66994,-11.76494 -25.20065,-18.5176 -34.77272,-18.5176l0,7.76208c7.20516,0 17.89107,5.74324 29.23832,16.22031c-4.87305,5.11671 -9.74611,10.92956 -14.37551,17.36896c-7.8665,0.83538 -15.31531,2.12326 -22.13759,3.82883c-0.80057,-3.48075 -1.3923,-6.85708 -1.80999,-10.09418c-1.63595,-13.29647 0.38288,-23.63431 5.0819,-26.3841c1.04423,-0.62654 2.40172,-0.905 4.00287,-0.905l0,-7.76208c-2.92383,0 -5.5692,0.62654 -7.8665,1.94922c-9.78091,5.63882 -11.97379,23.21662 -6.9267,45.28459c-21.65028,6.68304 -35.74733,17.36896 -35.74733,28.64659c0,11.31245 14.16666,22.03316 35.88656,28.6814c-5.01228,22.13759 -2.7846,39.75019 7.03112,45.38901c2.26249,1.32269 4.90786,1.94922 7.83169,1.94922c9.57207,0 22.10278,-6.82228 34.77272,-18.65683c12.66994,11.76494 25.20065,18.5176 34.77272,18.5176c2.92383,0 5.5692,-0.62654 7.8665,-1.94922c9.78091,-5.63882 11.97379,-23.21662 6.9267,-45.28459c21.58067,-6.64824 35.67771,-17.36896 35.67771,-28.64659l0.00001,-0.00002zm-45.3194,-23.21662c-1.28788,4.49017 -2.88902,9.11957 -4.69902,13.74897c-1.42711,-2.7846 -2.92383,-5.5692 -4.55979,-8.35381c-1.60115,-2.7846 -3.30671,-5.49959 -5.01228,-8.14496c4.94267,0.73096 9.7113,1.63595 14.27109,2.74979l0,0.00001zm-15.94185,37.07002c-2.71499,4.69902 -5.49959,9.15438 -8.38861,13.29647c-5.18632,0.4525 -10.44226,0.69615 -15.733,0.69615c-5.25594,0 -10.51187,-0.24365 -15.66339,-0.66134c-2.88902,-4.1421 -5.70843,-8.56265 -8.42342,-13.22686c-2.64537,-4.55979 -5.04709,-9.18919 -7.23997,-13.8534c2.15807,-4.66421 4.59459,-9.32842 7.20516,-13.8882c2.71499,-4.69902 5.49959,-9.15438 8.38861,-13.29647c5.18632,-0.4525 10.44226,-0.69615 15.733,-0.69615c5.25594,0 10.51187,0.24365 15.66339,0.66134c2.88902,4.1421 5.70843,8.56265 8.42342,13.22686c2.64537,4.55979 5.04709,9.18919 7.23997,13.8534c-2.19287,4.66421 -4.59459,9.32842 -7.20516,13.8882zm11.24283,-4.52498c1.87961,4.66421 3.48075,9.32842 4.80344,13.8534c-4.55979,1.11384 -9.36322,2.05364 -14.3407,2.7846c1.70557,-2.68018 3.41114,-5.42997 5.01228,-8.24938c1.60115,-2.7846 3.09787,-5.60401 4.52498,-8.38861l0,-0.00001zm-35.29483,37.13963c-3.2371,-3.34152 -6.4742,-7.06593 -9.67649,-11.13841c3.13268,0.13923 6.33497,0.24365 9.57207,0.24365c3.27191,0 6.50901,-0.06962 9.67649,-0.24365c-3.13268,4.07248 -6.36978,7.79689 -9.57207,11.13841zm-25.8968,-20.50163c-4.94267,-0.73096 -9.7113,-1.63595 -14.27109,-2.74979c1.28788,-4.49017 2.88902,-9.11957 4.69902,-13.74897c1.42711,2.7846 2.92383,5.5692 4.55979,8.35381s3.30671,5.49959 5.01228,8.14496l0,-0.00001zm25.72276,-72.43446c3.2371,3.34152 6.4742,7.06593 9.67649,11.13841c-3.13268,-0.13923 -6.33497,-0.24365 -9.57207,-0.24365c-3.27191,0 -6.50901,0.06962 -9.67649,0.24365c3.13268,-4.07248 6.36978,-7.79689 9.57207,-11.13841zm-25.75757,20.50163c-1.70557,2.68018 -3.41114,5.42997 -5.01228,8.24938c-1.60115,2.7846 -3.09787,5.5692 -4.52498,8.35381c-1.87961,-4.66421 -3.48075,-9.32842 -4.80344,-13.8534c4.55979,-1.07903 9.36322,-2.01884 14.3407,-2.74979zm-31.50081,43.57902c-12.32186,-5.25594 -20.29279,-12.14783 -20.29279,-17.61261s7.97092,-12.39148 20.29279,-17.61261c2.99345,-1.28788 6.26535,-2.43653 9.64168,-3.51556c1.98403,6.82228 4.59459,13.92301 7.83169,21.19778c-3.20229,7.23997 -5.77805,14.30589 -7.72727,21.09336c-3.44595,-1.07903 -6.71785,-2.26249 -9.74611,-3.55037l0.00001,0.00001zm18.72645,49.73995c-4.73382,-2.71499 -6.78747,-13.05282 -5.18632,-26.3493c0.38288,-3.27191 1.00942,-6.71785 1.77518,-10.23341c6.82228,1.67076 14.27109,2.95864 22.10278,3.79402c4.69902,6.43939 9.57207,12.28706 14.47993,17.40376c-11.34725,10.54668 -21.99836,16.32473 -29.23832,16.32473c-1.56634,-0.03481 -2.88902,-0.34808 -3.93325,-0.9398zm82.56345,-26.52333c1.63595,13.29647 -0.38288,23.63431 -5.0819,26.3841c-1.04423,0.62654 -2.40172,0.905 -4.00287,0.905c-7.20516,0 -17.89107,-5.74324 -29.23832,-16.22031c4.87305,-5.11671 9.74611,-10.92956 14.37551,-17.36896c7.8665,-0.83538 15.31531,-2.12326 22.13759,-3.82883c0.80057,3.51556 1.42711,6.89189 1.80999,10.12899l0,0.00001zm13.4009,-23.21662c-2.99345,1.28788 -6.26535,2.43653 -9.64168,3.51556c-1.98403,-6.82228 -4.59459,-13.92301 -7.83169,-21.19778c3.20229,-7.23997 5.77805,-14.30589 7.72727,-21.09336c3.44595,1.07903 6.71785,2.26249 9.78091,3.55037c12.32186,5.25594 20.29279,12.14783 20.29279,17.61261c-0.03481,5.46478 -8.00573,12.39148 -20.3276,17.61261l0,-0.00001z"/>
    <circle stroke="#ffffff" id="svg_17" r="15.90705" cy="78.34923" cx="138.59202"/>
   </g>
  </g>
  <text stroke-width="0.8" transform="matrix(2.96855 0 0 2.72215 -1136.88 -620.276)" stroke="#ffffff" font-style="normal" font-weight="bold" xml:space="preserve" text-anchor="start" font-family="sans-serif" font-size="24" id="svg_1" y="284.5112" x="382.47004" fill="#4cc6ff">init-react</text>
 </g>

</svg>